<svg width="52" height="40" viewBox="0 0 52 40" fill="none" xmlns="http://www.w3.org/2000/svg">
<g filter="url(#filter0_dd_2_244)">
<path d="M14.383 35.706C11.2315 35.706 8.54932 34.6164 6.33656 32.4371C4.12379 30.2579 3.01741 27.6093 3.01741 24.4913C3.01741 21.8092 3.92263 19.5545 5.73307 17.7273C7.54352 15.9001 9.80658 14.9865 12.5222 14.9865C15.0032 14.9865 17.107 15.6738 18.8337 17.0484C20.5603 18.4229 21.5912 20.2334 21.9265 22.4797C21.9935 22.9155 22.1612 23.2676 22.4294 23.5358C22.6976 23.804 23.0329 23.9381 23.4352 23.9381C23.871 23.9381 24.2315 23.7872 24.5164 23.4855C24.8014 23.1837 24.9271 22.8317 24.8936 22.4294C24.4913 19.6802 23.1335 17.2411 20.8201 15.1122C18.5068 12.9832 15.5229 11.9355 11.8685 11.969C12.9749 9.21986 14.8356 6.87298 17.4507 4.92843C20.0658 2.98388 22.9323 2.0116 26.0503 2.0116C30.0064 2.0116 33.3172 3.42811 35.9826 6.26112C38.648 9.09413 40.0645 12.3881 40.2321 16.1431V17.3501C42.7466 17.5513 44.8336 18.4732 46.4932 20.116C48.1528 21.7589 48.9826 23.8878 48.9826 26.5029C48.9826 29.0174 48.0774 31.1799 46.2669 32.9903C44.4565 34.8008 42.294 35.706 39.7795 35.706H14.383Z" fill="#49454F"/>
</g>
<defs>
<filter id="filter0_dd_2_244" x="0" y="0" width="52" height="39.7292" filterUnits="userSpaceOnUse" color-interpolation-filters="sRGB">
<feFlood flood-opacity="0" result="BackgroundImageFix"/>
<feColorMatrix in="SourceAlpha" type="matrix" values="0 0 0 0 0 0 0 0 0 0 0 0 0 0 0 0 0 0 127 0" result="hardAlpha"/>
<feOffset dy="1"/>
<feGaussianBlur stdDeviation="1.5"/>
<feColorMatrix type="matrix" values="0 0 0 0 0 0 0 0 0 0 0 0 0 0 0 0 0 0 0.15 0"/>
<feBlend mode="normal" in2="BackgroundImageFix" result="effect1_dropShadow_2_244"/>
<feColorMatrix in="SourceAlpha" type="matrix" values="0 0 0 0 0 0 0 0 0 0 0 0 0 0 0 0 0 0 127 0" result="hardAlpha"/>
<feOffset dy="1"/>
<feGaussianBlur stdDeviation="1"/>
<feColorMatrix type="matrix" values="0 0 0 0 0 0 0 0 0 0 0 0 0 0 0 0 0 0 0.3 0"/>
<feBlend mode="normal" in2="effect1_dropShadow_2_244" result="effect2_dropShadow_2_244"/>
<feBlend mode="normal" in="SourceGraphic" in2="effect2_dropShadow_2_244" result="shape"/>
</filter>
</defs>
</svg>
