<svg xmlns="http://www.w3.org/2000/svg" width="24" height="24" fill="none" viewBox="0 0 24 24"><mask id="mask0_2_38" style="mask-type:alpha" width="24" height="24" x="0" y="0" maskUnits="userSpaceOnUse"><rect width="24" height="24" fill="#D9D9D9"/></mask><g mask="url(#mask0_2_38)"><mask id="mask1_2_38" style="mask-type:alpha" width="24" height="24" x="0" y="0" maskUnits="userSpaceOnUse"><rect width="24" height="24" fill="#D9D9D9"/></mask><g mask="url(#mask1_2_38)"><path fill="#1C1B1F" d="M4 21C3.45 21 2.97933 20.8043 2.588 20.413C2.196 20.021 2 19.55 2 19V3L3.675 4.675L5.325 3L7 4.675L8.675 3L10.325 4.675L12 3L13.675 4.675L15.325 3L17 4.675L18.675 3L20.325 4.675L22 3V19C22 19.55 21.8043 20.021 21.413 20.413C21.021 20.8043 20.55 21 20 21H4ZM4 19H11V13H4V19ZM13 19H20V17H13V19ZM13 15H20V13H13V15ZM4 11H20V8H4V11Z"/></g></g></svg>