<svg width="64" height="32" viewBox="0 0 64 32" fill="none" xmlns="http://www.w3.org/2000/svg">
<mask id="mask0_2_114" style="mask-type:alpha" maskUnits="userSpaceOnUse" x="20" y="4" width="24" height="24">
<rect x="20" y="4" width="24" height="24" fill="#D9D9D9"/>
</mask>
<g mask="url(#mask0_2_114)">
<path d="M29.25 26L28.85 22.8C28.6333 22.7167 28.4293 22.6167 28.238 22.5C28.046 22.3833 27.8583 22.2583 27.675 22.125L24.7 23.375L21.95 18.625L24.525 16.675C24.5083 16.5583 24.5 16.4457 24.5 16.337V15.662C24.5 15.554 24.5083 15.4417 24.525 15.325L21.95 13.375L24.7 8.625L27.675 9.875C27.8583 9.74167 28.05 9.61667 28.25 9.5C28.45 9.38333 28.65 9.28333 28.85 9.2L29.25 6H34.75L35.15 9.2C35.3667 9.28333 35.571 9.38333 35.763 9.5C35.9543 9.61667 36.1417 9.74167 36.325 9.875L39.3 8.625L42.05 13.375L39.475 15.325C39.4917 15.4417 39.5 15.554 39.5 15.662V16.337C39.5 16.4457 39.4833 16.5583 39.45 16.675L42.025 18.625L39.275 23.375L36.325 22.125C36.1417 22.2583 35.95 22.3833 35.75 22.5C35.55 22.6167 35.35 22.7167 35.15 22.8L34.75 26H29.25ZM32.05 19.5C33.0167 19.5 33.8417 19.1583 34.525 18.475C35.2083 17.7917 35.55 16.9667 35.55 16C35.55 15.0333 35.2083 14.2083 34.525 13.525C33.8417 12.8417 33.0167 12.5 32.05 12.5C31.0667 12.5 30.2373 12.8417 29.562 13.525C28.8873 14.2083 28.55 15.0333 28.55 16C28.55 16.9667 28.8873 17.7917 29.562 18.475C30.2373 19.1583 31.0667 19.5 32.05 19.5ZM32.05 17.5C31.6333 17.5 31.2793 17.354 30.988 17.062C30.696 16.7707 30.55 16.4167 30.55 16C30.55 15.5833 30.696 15.2293 30.988 14.938C31.2793 14.646 31.6333 14.5 32.05 14.5C32.4667 14.5 32.821 14.646 33.113 14.938C33.4043 15.2293 33.55 15.5833 33.55 16C33.55 16.4167 33.4043 16.7707 33.113 17.062C32.821 17.354 32.4667 17.5 32.05 17.5ZM31 24H32.975L33.325 21.35C33.8417 21.2167 34.321 21.0207 34.763 20.762C35.2043 20.504 35.6083 20.1917 35.975 19.825L38.45 20.85L39.425 19.15L37.275 17.525C37.3583 17.2917 37.4167 17.0457 37.45 16.787C37.4833 16.529 37.5 16.2667 37.5 16C37.5 15.7333 37.4833 15.4707 37.45 15.212C37.4167 14.954 37.3583 14.7083 37.275 14.475L39.425 12.85L38.45 11.15L35.975 12.2C35.6083 11.8167 35.2043 11.4957 34.763 11.237C34.321 10.979 33.8417 10.7833 33.325 10.65L33 8H31.025L30.675 10.65C30.1583 10.7833 29.6793 10.979 29.238 11.237C28.796 11.4957 28.3917 11.8083 28.025 12.175L25.55 11.15L24.575 12.85L26.725 14.45C26.6417 14.7 26.5833 14.95 26.55 15.2C26.5167 15.45 26.5 15.7167 26.5 16C26.5 16.2667 26.5167 16.525 26.55 16.775C26.5833 17.025 26.6417 17.275 26.725 17.525L24.575 19.15L25.55 20.85L28.025 19.8C28.3917 20.1833 28.796 20.504 29.238 20.762C29.6793 21.0207 30.1583 21.2167 30.675 21.35L31 24Z" fill="#49454F"/>
</g>
</svg>
