<svg xmlns="http://www.w3.org/2000/svg" width="46" height="34" fill="none" viewBox="0 0 46 34"><path fill="#fff" d="M11.3742 33.7199C8.22028 33.7199 5.5361 32.6295 3.32166 30.4486C1.10722 28.2677 0 25.6171 0 22.4967C0 19.8125 0.905908 17.5562 2.71772 15.7276C4.52954 13.899 6.79431 12.9847 9.51203 12.9847C11.9949 12.9847 14.1003 13.6725 15.8282 15.0481C17.5562 16.4238 18.5879 18.2356 18.9234 20.4836C18.9905 20.9198 19.1583 21.2721 19.4267 21.5405C19.6951 21.8089 20.0306 21.9431 20.4333 21.9431C20.8694 21.9431 21.2301 21.7921 21.5153 21.4901C21.8005 21.1882 21.9263 20.8359 21.8928 20.4333C21.4901 17.682 20.1313 15.2411 17.8162 13.1105C15.5011 10.9799 12.5149 9.93143 8.85777 9.96499C9.96499 7.21371 11.8271 4.86506 14.4442 2.91904C17.0613 0.973012 19.93 0 23.0503 0C27.0095 0 30.3227 1.41758 32.9901 4.25273C35.6575 7.08789 37.0751 10.3844 37.2429 14.1422V15.3501C39.7593 15.5514 41.8479 16.4741 43.5087 18.1182C45.1696 19.7622 46 21.8928 46 24.5098C46 27.0263 45.0941 29.1904 43.2823 31.0022C41.4704 32.814 39.3063 33.7199 36.7899 33.7199H11.3742Z"/></svg>