<svg width="52" height="40" viewBox="0 0 52 40" fill="none" xmlns="http://www.w3.org/2000/svg">
<g filter="url(#filter0_dd_2_251)">
<path d="M14.383 35.6557C11.2315 35.6557 8.54932 34.5577 6.33656 32.3617C4.12379 30.1657 3.01741 27.4919 3.01741 24.3404C3.01741 21.6248 3.87234 19.2192 5.5822 17.1238C7.29207 15.0284 9.47131 13.7292 12.1199 13.2263C12.9246 9.90715 14.626 7.20825 17.2244 5.12959C19.8227 3.05093 22.7814 2.0116 26.1006 2.0116C29.9226 2.0116 33.1831 3.37782 35.882 6.11025C38.5809 8.84268 40.0309 12.1702 40.2321 16.0928V17.2998C42.7131 17.4004 44.7917 18.3056 46.4681 20.0155C48.1444 21.7253 48.9826 23.871 48.9826 26.4526C48.9826 28.9671 48.0774 31.1296 46.2669 32.94C44.4565 34.7505 42.294 35.6557 39.7795 35.6557H14.383Z" fill="#49454F"/>
</g>
<defs>
<filter id="filter0_dd_2_251" x="0" y="0" width="52" height="39.6789" filterUnits="userSpaceOnUse" color-interpolation-filters="sRGB">
<feFlood flood-opacity="0" result="BackgroundImageFix"/>
<feColorMatrix in="SourceAlpha" type="matrix" values="0 0 0 0 0 0 0 0 0 0 0 0 0 0 0 0 0 0 127 0" result="hardAlpha"/>
<feOffset dy="1"/>
<feGaussianBlur stdDeviation="1.5"/>
<feColorMatrix type="matrix" values="0 0 0 0 0 0 0 0 0 0 0 0 0 0 0 0 0 0 0.15 0"/>
<feBlend mode="normal" in2="BackgroundImageFix" result="effect1_dropShadow_2_251"/>
<feColorMatrix in="SourceAlpha" type="matrix" values="0 0 0 0 0 0 0 0 0 0 0 0 0 0 0 0 0 0 127 0" result="hardAlpha"/>
<feOffset dy="1"/>
<feGaussianBlur stdDeviation="1"/>
<feColorMatrix type="matrix" values="0 0 0 0 0 0 0 0 0 0 0 0 0 0 0 0 0 0 0.3 0"/>
<feBlend mode="normal" in2="effect1_dropShadow_2_251" result="effect2_dropShadow_2_251"/>
<feBlend mode="normal" in="SourceGraphic" in2="effect2_dropShadow_2_251" result="shape"/>
</filter>
</defs>
</svg>
