<svg width="48" height="45" viewBox="0 0 48 45" fill="none" xmlns="http://www.w3.org/2000/svg">
<g filter="url(#filter0_dd_2_248)">
<path d="M35.5263 40.4143L32.3516 37.2396C31.9821 36.9037 31.7973 36.4754 31.7973 35.9546C31.7973 35.4339 31.9821 34.9888 32.3516 34.6193C32.6876 34.2833 33.1159 34.1153 33.6366 34.1153C34.1573 34.1153 34.6025 34.2833 34.972 34.6193L38.1467 37.794C38.4826 38.1635 38.6506 38.6086 38.6506 39.1293C38.6506 39.6501 38.4826 40.0784 38.1467 40.4143C37.7772 40.7839 37.332 40.9686 36.8113 40.9686C36.2906 40.9686 35.8623 40.7839 35.5263 40.4143ZM10.0784 39.6585C8.1299 39.6585 6.46697 38.9698 5.08959 37.5924C3.71221 36.215 3.02352 34.5521 3.02352 32.6036C3.02352 30.6551 3.71221 28.9922 5.08959 27.6148C6.46697 26.2374 8.1299 25.5487 10.0784 25.5487C11.3886 25.5487 12.5896 25.9015 13.6814 26.6069C14.7732 27.3124 15.5711 28.2531 16.075 29.4289L16.9821 31.495H19.1489C20.2576 31.495 21.2066 31.8981 21.9961 32.7044C22.7856 33.5106 23.1803 34.4849 23.1803 35.6271C23.1803 36.7357 22.7856 37.6848 21.9961 38.4742C21.2066 39.2637 20.2576 39.6585 19.1489 39.6585H10.0784ZM26.103 35.9798C26.0358 33.9306 25.3219 32.1669 23.9614 30.6887C22.6008 29.2105 20.9295 28.4714 18.9474 28.4714C18.3763 26.5566 17.2592 25.0448 15.5963 23.9362C13.9334 22.8275 12.0941 22.3572 10.0784 22.5252C10.5487 19.5689 11.9345 17.1501 14.2357 15.2688C16.537 13.3875 19.1825 12.4468 22.1725 12.4468C25.5319 12.4468 28.3875 13.6226 30.7391 15.9742C33.0907 18.3259 34.2665 21.1814 34.2665 24.5409C34.2665 27.1613 33.519 29.5129 32.0241 31.5957C30.5291 33.6786 28.5554 35.14 26.103 35.9798ZM38.2979 26.355C37.794 26.355 37.3656 26.1786 37.0129 25.8259C36.6601 25.4731 36.4838 25.0448 36.4838 24.5409C36.4838 24.037 36.6601 23.6002 37.0129 23.2307C37.3656 22.8611 37.794 22.6764 38.2979 22.6764H42.8331C43.3371 22.6764 43.7738 22.8611 44.1433 23.2307C44.5129 23.6002 44.6976 24.037 44.6976 24.5409C44.6976 25.0448 44.5129 25.4731 44.1433 25.8259C43.7738 26.1786 43.3371 26.355 42.8331 26.355H38.2979ZM9.52408 14.4121L6.29899 11.187C5.92945 10.8511 5.74468 10.4311 5.74468 9.92721C5.74468 9.42329 5.92945 8.98656 6.29899 8.61702C6.63494 8.28108 7.05487 8.1131 7.55879 8.1131C8.06271 8.1131 8.49944 8.28108 8.86898 8.61702L12.0941 11.8421C12.43 12.2116 12.598 12.6484 12.598 13.1523C12.598 13.6562 12.43 14.0761 12.0941 14.4121C11.7245 14.7816 11.2878 14.9664 10.7839 14.9664C10.28 14.9664 9.86002 14.7816 9.52408 14.4121ZM32.3012 14.4121C31.9317 14.0761 31.7469 13.6478 31.7469 13.1271C31.7469 12.6064 31.9317 12.1613 32.3012 11.7917L35.4759 8.61702C35.8119 8.28108 36.2402 8.1131 36.7609 8.1131C37.2816 8.1131 37.7268 8.28108 38.0963 8.61702C38.4323 8.98656 38.6002 9.42329 38.6002 9.92721C38.6002 10.4311 38.4323 10.8511 38.0963 11.187L34.8712 14.4121C34.5017 14.7816 34.065 14.9664 33.561 14.9664C33.0571 14.9664 32.6372 14.7816 32.3012 14.4121ZM22.1725 10.2296C21.6685 10.2296 21.2402 10.0532 20.8875 9.70045C20.5347 9.3477 20.3583 8.91937 20.3583 8.41545V3.88018C20.3583 3.37626 20.5347 2.93953 20.8875 2.56999C21.2402 2.20045 21.6685 2.01568 22.1725 2.01568C22.6764 2.01568 23.1131 2.20045 23.4826 2.56999C23.8522 2.93953 24.037 3.37626 24.037 3.88018V8.41545C24.037 8.91937 23.8522 9.3477 23.4826 9.70045C23.1131 10.0532 22.6764 10.2296 22.1725 10.2296Z" fill="#49454F"/>
</g>
<defs>
<filter id="filter0_dd_2_248" x="0" y="0" width="47.7212" height="45" filterUnits="userSpaceOnUse" color-interpolation-filters="sRGB">
<feFlood flood-opacity="0" result="BackgroundImageFix"/>
<feColorMatrix in="SourceAlpha" type="matrix" values="0 0 0 0 0 0 0 0 0 0 0 0 0 0 0 0 0 0 127 0" result="hardAlpha"/>
<feOffset dy="1"/>
<feGaussianBlur stdDeviation="1.5"/>
<feColorMatrix type="matrix" values="0 0 0 0 0 0 0 0 0 0 0 0 0 0 0 0 0 0 0.15 0"/>
<feBlend mode="normal" in2="BackgroundImageFix" result="effect1_dropShadow_2_248"/>
<feColorMatrix in="SourceAlpha" type="matrix" values="0 0 0 0 0 0 0 0 0 0 0 0 0 0 0 0 0 0 127 0" result="hardAlpha"/>
<feOffset dy="1"/>
<feGaussianBlur stdDeviation="1"/>
<feColorMatrix type="matrix" values="0 0 0 0 0 0 0 0 0 0 0 0 0 0 0 0 0 0 0.3 0"/>
<feBlend mode="normal" in2="effect1_dropShadow_2_248" result="effect2_dropShadow_2_248"/>
<feBlend mode="normal" in="SourceGraphic" in2="effect2_dropShadow_2_248" result="shape"/>
</filter>
</defs>
</svg>
