<svg xmlns="http://www.w3.org/2000/svg" width="41" height="45" fill="none" viewBox="0 0 41 45"><path fill="#fff" d="M25.1648 39.3862L23.2485 38.3776C22.7105 38.1423 22.3827 37.7388 22.2651 37.1673C22.1474 36.5957 22.2903 36.0746 22.6937 35.6039L26.2239 31.4686C26.3583 31.3342 26.5096 31.2249 26.6777 31.1408C26.8458 31.0568 27.0476 31.0148 27.2829 31.0148C27.8545 31.0148 28.2495 31.2753 28.468 31.7964C28.6866 32.3176 28.6109 32.7798 28.2411 33.1833L25.417 36.4613L27.3333 37.4194C27.8713 37.6884 28.1991 38.1087 28.3167 38.6802C28.4344 39.2517 28.2915 39.7729 27.8881 40.2435L24.3579 44.3789C24.2235 44.5133 24.0722 44.6142 23.9041 44.6814C23.736 44.7487 23.551 44.7823 23.3493 44.7823C22.7442 44.7823 22.3323 44.5301 22.1138 44.0258C21.8952 43.5215 21.9709 43.0508 22.3407 42.6138L25.1648 39.3862ZM13.0615 39.3862L11.1451 38.3776C10.5736 38.1423 10.2374 37.7388 10.1365 37.1673C10.0357 36.5957 10.187 36.0746 10.5904 35.6039L14.1205 31.4686C14.4231 31.4014 14.7677 31.3089 15.1544 31.1913C15.541 31.0736 15.5326 31.0148 15.1292 31.0148C15.7007 31.0148 16.1041 31.2753 16.3395 31.7964C16.5748 32.3176 16.5076 32.7798 16.1378 33.1833L13.3137 36.4613L15.23 37.4194C15.7679 37.6884 16.0873 38.1087 16.1882 38.6802C16.2891 39.2517 16.1546 39.7729 15.7848 40.2435L12.2546 44.3789C11.9184 44.4461 11.557 44.5301 11.1704 44.631C10.7837 44.7319 10.7921 44.7823 11.1956 44.7823C10.624 44.7823 10.2206 44.5301 9.98524 44.0258C9.7499 43.5215 9.83395 43.0508 10.2374 42.6138L13.0615 39.3862ZM10.893 27.8881C7.90078 27.8881 5.33723 26.8206 3.20234 24.6857C1.06745 22.5508 0 19.9873 0 16.9951C0 14.2718 0.95818 11.8512 2.87454 9.73309C4.7909 7.61501 7.17794 6.42149 10.0357 6.15252C11.1451 4.23616 12.5992 2.73165 14.3979 1.63899C16.1966 0.546331 18.2222 0 20.4748 0C23.5342 0 26.123 0.97499 28.2411 2.92497C30.3592 4.87495 31.704 7.2788 32.2755 10.1365C34.9315 10.3383 37.0496 11.288 38.6298 12.9859C40.2099 14.6837 41 16.6925 41 19.0123C41 21.4666 40.1343 23.5595 38.4028 25.2909C36.6714 27.0224 34.5617 27.8881 32.0738 27.8881H10.893Z"/></svg>