<svg xmlns="http://www.w3.org/2000/svg" width="86" height="80" fill="none" viewBox="0 0 86 80"><path fill="#fff" d="M66.7529 78.8616L60.2329 72.3415C59.4739 71.6516 59.0944 70.7719 59.0944 69.7025C59.0944 68.633 59.4739 67.7188 60.2329 66.9599C60.9228 66.2699 61.8025 65.925 62.8719 65.925C63.9414 65.925 64.8555 66.2699 65.6145 66.9599L72.1345 73.4799C72.8245 74.2389 73.1695 75.1531 73.1695 76.2225C73.1695 77.2919 72.8245 78.1716 72.1345 78.8616C71.3756 79.6205 70.4614 80 69.392 80C68.3226 80 67.4429 79.6205 66.7529 78.8616ZM14.489 77.3092C10.4873 77.3092 7.07201 75.8948 4.24321 73.066C1.4144 70.2372 0 66.8219 0 62.8202C0 58.8185 1.4144 55.4032 4.24321 52.5744C7.07201 49.7456 10.4873 48.3312 14.489 48.3312C17.1798 48.3312 19.6464 49.0556 21.8887 50.5045C24.1311 51.9534 25.7697 53.8853 26.8047 56.3001L28.6675 60.5433H33.1177C35.3946 60.5433 37.3437 61.3713 38.9651 63.0272C40.5865 64.6831 41.3972 66.6839 41.3972 69.0298C41.3972 71.3066 40.5865 73.2557 38.9651 74.8771C37.3437 76.4985 35.3946 77.3092 33.1177 77.3092H14.489ZM47.3997 69.7542C47.2618 65.5455 45.7956 61.9232 43.0013 58.8875C40.207 55.8517 36.7745 54.3338 32.7038 54.3338C31.5308 50.401 29.2367 47.2963 25.8215 45.0194C22.4062 42.7426 18.6287 41.7766 14.489 42.1216C15.4549 36.05 18.301 31.0824 23.0272 27.2186C27.7533 23.3549 33.1867 21.423 39.3273 21.423C46.2268 21.423 52.0914 23.8379 56.9211 28.6675C61.7508 33.4972 64.1656 39.3618 64.1656 46.2613C64.1656 51.643 62.6305 56.4726 59.5602 60.7503C56.4899 65.028 52.4364 68.0293 47.3997 69.7542ZM72.445 49.9871C71.4101 49.9871 70.5304 49.6248 69.806 48.9004C69.0815 48.1759 68.7193 47.2963 68.7193 46.2613C68.7193 45.2264 69.0815 44.3295 69.806 43.5705C70.5304 42.8116 71.4101 42.4321 72.445 42.4321H81.7594C82.7943 42.4321 83.6913 42.8116 84.4502 43.5705C85.2091 44.3295 85.5886 45.2264 85.5886 46.2613C85.5886 47.2963 85.2091 48.1759 84.4502 48.9004C83.6913 49.6248 82.7943 49.9871 81.7594 49.9871H72.445ZM13.3506 25.4593L6.72704 18.8357C5.96809 18.1458 5.58862 17.2833 5.58862 16.2484C5.58862 15.2135 5.96809 14.3165 6.72704 13.5576C7.41699 12.8676 8.27943 12.5226 9.31436 12.5226C10.3493 12.5226 11.2462 12.8676 12.0052 13.5576L18.6287 20.1811C19.3187 20.9401 19.6636 21.837 19.6636 22.8719C19.6636 23.9069 19.3187 24.7693 18.6287 25.4593C17.8698 26.2182 16.9728 26.5977 15.9379 26.5977C14.903 26.5977 14.0405 26.2182 13.3506 25.4593ZM60.1294 25.4593C59.3704 24.7693 58.9909 23.8896 58.9909 22.8202C58.9909 21.7508 59.3704 20.8366 60.1294 20.0776L66.6494 13.5576C67.3394 12.8676 68.2191 12.5226 69.2885 12.5226C70.3579 12.5226 71.2721 12.8676 72.0311 13.5576C72.721 14.3165 73.066 15.2135 73.066 16.2484C73.066 17.2833 72.721 18.1458 72.0311 18.8357L65.4075 25.4593C64.6486 26.2182 63.7516 26.5977 62.7167 26.5977C61.6818 26.5977 60.8193 26.2182 60.1294 25.4593ZM39.3273 16.8693C38.2924 16.8693 37.4127 16.5071 36.6882 15.7827C35.9638 15.0582 35.6016 14.1785 35.6016 13.1436V3.82924C35.6016 2.79431 35.9638 1.89737 36.6882 1.13842C37.4127 0.379474 38.2924 0 39.3273 0C40.3622 0 41.2592 0.379474 42.0181 1.13842C42.7771 1.89737 43.1565 2.79431 43.1565 3.82924V13.1436C43.1565 14.1785 42.7771 15.0582 42.0181 15.7827C41.2592 16.5071 40.3622 16.8693 39.3273 16.8693Z"/></svg>