<svg xmlns="http://www.w3.org/2000/svg" width="30" height="30" fill="none" viewBox="0 0 30 30"><path fill="#0092FF" d="M1.375 26.625C0.986333 26.625 0.66 26.486 0.396 26.208C0.132 25.9307 0 25.5973 0 25.208C0 24.8193 0.132 24.493 0.396 24.229C0.66 23.965 0.986333 23.833 1.375 23.833H8.792C9.20867 23.833 9.54867 23.965 9.812 24.229C10.076 24.493 10.208 24.8193 10.208 25.208C10.208 25.6247 10.076 25.965 9.812 26.229C9.54867 26.493 9.20867 26.625 8.792 26.625H1.375ZM1.375 6.167C0.986333 6.167 0.66 6.035 0.396 5.771C0.132 5.507 0 5.18067 0 4.792C0 4.37533 0.132 4.035 0.396 3.771C0.66 3.507 0.986333 3.375 1.375 3.375H15.625C16.0417 3.375 16.382 3.514 16.646 3.792C16.91 4.06933 17.042 4.40267 17.042 4.792C17.042 5.18067 16.91 5.507 16.646 5.771C16.382 6.035 16.0417 6.167 15.625 6.167H1.375ZM14.375 30C13.9583 30 13.618 29.868 13.354 29.604C13.09 29.34 12.958 29.0137 12.958 28.625V21.792C12.958 21.4027 13.097 21.076 13.375 20.812C13.653 20.5487 13.9863 20.417 14.375 20.417C14.7637 20.417 15.09 20.5487 15.354 20.812C15.618 21.076 15.75 21.4027 15.75 21.792V23.833H28.625C29.0137 23.833 29.34 23.965 29.604 24.229C29.868 24.493 30 24.8193 30 25.208C30 25.6247 29.868 25.965 29.604 26.229C29.34 26.493 29.0137 26.625 28.625 26.625H15.75V28.625C15.75 29.0137 15.618 29.34 15.354 29.604C15.09 29.868 14.7637 30 14.375 30ZM8.792 19.792C8.40267 19.792 8.076 19.653 7.812 19.375C7.54867 19.097 7.417 18.7637 7.417 18.375V16.375H1.375C0.986333 16.375 0.66 16.243 0.396 15.979C0.132 15.715 0 15.3887 0 15C0 14.6113 0.132 14.285 0.396 14.021C0.66 13.757 0.986333 13.625 1.375 13.625H7.417V11.542C7.417 11.1527 7.54867 10.8263 7.812 10.563C8.076 10.299 8.40267 10.167 8.792 10.167C9.20867 10.167 9.54867 10.299 9.812 10.563C10.076 10.8263 10.208 11.1527 10.208 11.542V18.375C10.208 18.7637 10.0693 19.097 9.792 19.375C9.514 19.653 9.18067 19.792 8.792 19.792ZM14.375 16.375C13.9583 16.375 13.618 16.243 13.354 15.979C13.09 15.715 12.958 15.3887 12.958 15C12.958 14.6113 13.09 14.285 13.354 14.021C13.618 13.757 13.9583 13.625 14.375 13.625H28.625C29.0137 13.625 29.34 13.757 29.604 14.021C29.868 14.285 30 14.6113 30 15C30 15.3887 29.868 15.715 29.604 15.979C29.34 16.243 29.0137 16.375 28.625 16.375H14.375ZM21.208 9.583C20.7913 9.583 20.4513 9.45133 20.188 9.188C19.924 8.924 19.792 8.59733 19.792 8.208V1.375C19.792 0.986333 19.9307 0.66 20.208 0.396C20.486 0.132 20.8193 0 21.208 0C21.5973 0 21.924 0.132 22.188 0.396C22.4513 0.66 22.583 0.986333 22.583 1.375V3.375H28.625C29.0137 3.375 29.34 3.514 29.604 3.792C29.868 4.06933 30 4.40267 30 4.792C30 5.18067 29.868 5.507 29.604 5.771C29.34 6.035 29.0137 6.167 28.625 6.167H22.583V8.208C22.583 8.59733 22.4513 8.924 22.188 9.188C21.924 9.45133 21.5973 9.583 21.208 9.583Z"/></svg>