<svg width="45" height="45" viewBox="0 0 45 45" fill="none" xmlns="http://www.w3.org/2000/svg">
<mask id="mask0_2_204" style="mask-type:alpha" maskUnits="userSpaceOnUse" x="-2" y="-2" width="49" height="49">
<rect x="-1.71334" y="-1.66294" width="48.3763" height="48.3763" fill="#D9D9D9"/>
</mask>
<g mask="url(#mask0_2_204)">
<path d="M22.4748 8.21389C21.9709 8.21389 21.5426 8.03751 21.1898 7.68477C20.8371 7.33203 20.6607 6.9037 20.6607 6.39978V1.8645C20.6607 1.36058 20.8371 0.923852 21.1898 0.554311C21.5426 0.18477 21.9709 0 22.4748 0C22.9787 0 23.4155 0.18477 23.785 0.554311C24.1545 0.923852 24.3393 1.36058 24.3393 1.8645V6.39978C24.3393 6.9037 24.1545 7.33203 23.785 7.68477C23.4155 8.03751 22.9787 8.21389 22.4748 8.21389ZM32.6036 12.3964C32.234 12.0605 32.0493 11.6405 32.0493 11.1366C32.0493 10.6327 32.234 10.196 32.6036 9.82643L35.7783 6.60134C36.1142 6.2654 36.5425 6.09742 37.0633 6.09742C37.584 6.09742 38.0291 6.2654 38.3987 6.60134C38.7346 6.97088 38.9026 7.40761 38.9026 7.91153C38.9026 8.41545 38.7346 8.83539 38.3987 9.17133L35.1736 12.3964C34.804 12.766 34.3673 12.9507 33.8634 12.9507C33.3595 12.9507 32.9395 12.766 32.6036 12.3964ZM38.6002 24.3393C38.0963 24.3393 37.668 24.1629 37.3152 23.8102C36.9625 23.4574 36.7861 23.0291 36.7861 22.5252C36.7861 22.0213 36.9625 21.5845 37.3152 21.215C37.668 20.8455 38.0963 20.6607 38.6002 20.6607H43.1355C43.6394 20.6607 44.0761 20.8455 44.4457 21.215C44.8152 21.5845 45 22.0213 45 22.5252C45 23.0291 44.8152 23.4574 44.4457 23.8102C44.0761 24.1629 43.6394 24.3393 43.1355 24.3393H38.6002ZM22.4748 45C21.9709 45 21.5426 44.8236 21.1898 44.4709C20.8371 44.1181 20.6607 43.6898 20.6607 43.1859V38.6506C20.6607 38.1467 20.8371 37.71 21.1898 37.3404C21.5426 36.9709 21.9709 36.7861 22.4748 36.7861C22.9787 36.7861 23.4155 36.9709 23.785 37.3404C24.1545 37.71 24.3393 38.1467 24.3393 38.6506V43.1859C24.3393 43.6898 24.1545 44.1181 23.785 44.4709C23.4155 44.8236 22.9787 45 22.4748 45ZM9.82643 12.3964L6.60134 9.22172C6.2318 8.88578 6.04703 8.45745 6.04703 7.93673C6.04703 7.41601 6.2318 6.97088 6.60134 6.60134C6.97088 6.2654 7.39922 6.09742 7.88634 6.09742C8.37346 6.09742 8.80179 6.2654 9.17133 6.60134L12.3964 9.82643C12.7324 10.196 12.9003 10.6327 12.9003 11.1366C12.9003 11.6405 12.7324 12.0605 12.3964 12.3964C12.0269 12.766 11.5901 12.9507 11.0862 12.9507C10.5823 12.9507 10.1624 12.766 9.82643 12.3964ZM35.8287 38.3987L32.6036 35.1736C32.234 34.8376 32.0493 34.4177 32.0493 33.9138C32.0493 33.4099 32.234 32.9731 32.6036 32.6036C32.9731 32.2676 33.4015 32.0997 33.8886 32.0997C34.3757 32.0997 34.804 32.2676 35.1736 32.6036L38.449 35.7783C38.785 36.1814 38.953 36.6349 38.953 37.1389C38.953 37.6428 38.785 38.0627 38.449 38.3987C38.0795 38.7682 37.6428 38.953 37.1389 38.953C36.6349 38.953 36.1982 38.7682 35.8287 38.3987ZM1.81411 24.3393C1.31019 24.3393 0.881859 24.1629 0.529115 23.8102C0.176372 23.4574 0 23.0291 0 22.5252C0 22.0213 0.176372 21.5845 0.529115 21.215C0.881859 20.8455 1.31019 20.6607 1.81411 20.6607H6.34938C6.8533 20.6607 7.29003 20.8455 7.65957 21.215C8.02912 21.5845 8.21389 22.0213 8.21389 22.5252C8.21389 23.0291 8.02912 23.4574 7.65957 23.8102C7.29003 24.1629 6.8533 24.3393 6.34938 24.3393H1.81411ZM6.60134 38.3987C6.2318 38.0291 6.04703 37.6008 6.04703 37.1137C6.04703 36.6265 6.2318 36.1982 6.60134 35.8287L9.82643 32.6036C10.196 32.2676 10.6243 32.0997 11.1114 32.0997C11.5985 32.0997 12.0269 32.2676 12.3964 32.6036C12.7324 33.0067 12.9003 33.4602 12.9003 33.9642C12.9003 34.4681 12.7324 34.888 12.3964 35.224L9.22172 38.3987C8.85218 38.7682 8.40705 38.953 7.88634 38.953C7.36562 38.953 6.93729 38.7682 6.60134 38.3987ZM22.4748 34.6193C19.1153 34.6193 16.2598 33.4434 13.9082 31.0918C11.5566 28.7402 10.3807 25.8847 10.3807 22.5252C10.3807 19.1657 11.5566 16.3102 13.9082 13.9586C16.2598 11.6069 19.1153 10.4311 22.4748 10.4311C25.8343 10.4311 28.6898 11.6069 31.0414 13.9586C33.3931 16.3102 34.5689 19.1657 34.5689 22.5252C34.5689 25.8847 33.3931 28.7402 31.0414 31.0918C28.6898 33.4434 25.8343 34.6193 22.4748 34.6193Z" fill="white"/>
</g>
</svg>
