<svg xmlns="http://www.w3.org/2000/svg" width="9" height="9" fill="none" viewBox="0 0 9 9"><mask id="mask0_2_274" style="mask-type:alpha" width="12" height="12" x="-1" y="-2" maskUnits="userSpaceOnUse"><rect width="11.14" height="11.14" x="-.859" y="-1.237" fill="#D9D9D9"/></mask><g mask="url(#mask0_2_274)"><path fill="#fff" d="M3.57368 5.42383L0.428886 4.14776C0.290009 4.09354 0.183808 4.00832 0.110285 3.8921C0.0367616 3.77624 0 3.64869 0 3.50944C0 3.37019 0.0386183 3.2445 0.115855 3.13236C0.193091 3.02022 0.297435 2.94094 0.428886 2.89452L8.14605 0.0399222C8.2775 -0.00649399 8.3993 -0.0124353 8.51144 0.0220984C8.62358 0.0570034 8.72217 0.113074 8.8072 0.190311C8.89224 0.267919 8.95035 0.36465 8.98154 0.480505C9.01236 0.596731 9.00456 0.72057 8.95815 0.852021L6.12694 8.58032C6.06493 8.72737 5.97785 8.83376 5.86571 8.89948C5.75357 8.96521 5.63177 8.99807 5.50032 8.99807C5.3685 8.99807 5.24856 8.96131 5.1405 8.88778C5.03208 8.81426 4.94686 8.71177 4.88484 8.58032L3.57368 5.42383Z"/></g></svg>